<?xml version="1.0" encoding="utf-8"?>
<svg id="master-artboard" viewBox="0 0 374.85699462890625 470.04705810546875" version="1.1" xmlns="http://www.w3.org/2000/svg" x="0px" y="0px" style="enable-background:new 0 0 1400 980;" width="374.85699462890625px" height="470.04705810546875px"><defs><style id="ee-google-fonts">@import url(https://fonts.googleapis.com/css?family=Anton:400|Roboto+Slab:100,300,400,700);</style><path id="text-path-0" d="M 778.8464965820312 213.4612274169922 A 100 18 0 0 1 988.3533935546875 213.4612274169922 A 100 18 0 0 1 778.8464965820312 213.4612274169922 Z" style="fill: none; stroke: red; stroke-width: 2;"/><path id="text-path-1" d="M 664.5464477539062 37.96122741699219 A 100 19 0 0 1 876.5812377929688 37.96122741699219 A 100 19 0 0 1 664.5464477539062 37.96122741699219" style="fill: none; stroke: red; stroke-width: 2;"/><path id="text-path-2" d="M 765.3650512695312 211.70851135253906 A 100 17 0 0 1 991.5017700195312 211.70851135253906 A 100 17 0 0 1 765.3650512695312 211.70851135253906" style="fill: none; stroke: red; stroke-width: 2;"/><path id="path-1" d="M 765.3650512695312 211.70851135253906 A 100 17 0 0 1 991.5017700195312 211.70851135253906 A 100 17 0 0 1 765.3650512695312 211.70851135253906" style="fill: none; stroke: red; stroke-width: 2;"/></defs><rect id="ee-background" x="0" y="0" width="374.85699462890625" height="470.04705810546875" style="fill: white; fill-opacity: 1; pointer-events: none;"/>

<path id="XMLID_1229_" class="st0" d="M1026.3,478.4c1.3,18.4,6.2,66.5,23,115.7c12.1,35.4,27.8,64.1,46.7,85.2&#10;&#9;&#9;&#9;&#9;c22.8,25.4,49.4,39.4,81.3,42.9l0.4,0l0.4,0c31.8-3.4,58.3-17.3,81.1-42.6c18.9-21,34.6-49.5,46.7-84.7&#10;&#9;&#9;&#9;&#9;c16.9-49.3,21.9-97.9,23.3-116.5l0.1-1.3l-30-40.9h-243.1l-30,40.9L1026.3,478.4z M1295.6,443.4l26.3,35.8&#10;&#9;&#9;&#9;&#9;c-1.5,19.2-6.5,66-22.8,113.3c-11.8,34.3-27,61.9-45.3,82.2c-21.4,23.7-46.3,36.9-76,40.2c-29.9-3.3-54.8-16.5-76.3-40.4&#10;&#9;&#9;&#9;&#9;c-18.3-20.4-33.5-48.2-45.3-82.6c-16.1-47.3-21.1-93.5-22.5-112.5l26.3-35.8H1295.6z" style="fill: rgb(63, 61, 61);" transform="matrix(0.0004948615678586066, -0.011270112358033657, 0.011270112358033657, 0.0004948615678586066, -8.244209289550781, 330.9128112792969)"/>
<path style="fill: rgb(63, 61, 61); fill-opacity: 1; stroke: rgb(0, 0, 0); stroke-opacity: 1; stroke-width: 0; paint-order: fill;" transform="matrix(0.0004948615678586066, -0.011270112358033657, 0.011270112358033657, 0.0004948615678586066, 6.6524658203125, 365.7445373535156)"/><path style="fill: rgb(63, 61, 61); fill-opacity: 1; stroke: rgb(0, 0, 0); stroke-opacity: 1; stroke-width: 0; paint-order: fill;" transform="matrix(0.0004948615678586066, -0.011270112358033657, 0.011270112358033657, 0.0004948615678586066, 6.6524658203125, 365.7445373535156)"/><path d="M 880.3870239257812 239.90606689453125" style="fill: rgb(63, 61, 61); fill-opacity: 1; stroke: rgb(0, 0, 0); stroke-opacity: 1; stroke-width: 0; paint-order: fill;" transform="matrix(0.0004948615678586066, -0.011270112358033657, 0.011270112358033657, 0.0004948615678586066, 6.2168121337890625, 375.6666259765625)"/><path d="M 864.144775390625 229.48651123046875" style="fill: rgb(63, 61, 61); fill-opacity: 1; stroke: rgb(0, 0, 0); stroke-opacity: 1; stroke-width: 0; paint-order: fill;" transform="matrix(0.0004948615678586066, -0.011270112358033657, 0.011270112358033657, 0.0004948615678586066, 6.224853515625, 375.48358154296875)"/><path style="fill: rgb(63, 61, 61); fill-opacity: 1; stroke: rgb(0, 0, 0); stroke-opacity: 1; stroke-width: 0; paint-order: fill;" transform="matrix(0.0004948615678586066, -0.011270112358033657, 0.011270112358033657, 0.0004948615678586066, 6.6524658203125, 365.7445373535156)"/><path style="fill: rgb(63, 61, 61); fill-opacity: 1; stroke: rgb(0, 0, 0); stroke-opacity: 1; stroke-width: 0; paint-order: fill;" transform="matrix(0.0004948615678586066, -0.011270112358033657, 0.011270112358033657, 0.0004948615678586066, 6.6524658203125, 365.7445373535156)"/><path style="fill: rgb(63, 61, 61); fill-opacity: 1; stroke: rgb(0, 0, 0); stroke-opacity: 1; stroke-width: 0; paint-order: fill;" transform="matrix(0.0004948615678586066, -0.011270112358033657, 0.011270112358033657, 0.0004948615678586066, 6.6524658203125, 365.7445373535156)"/><path style="fill: rgb(63, 61, 61); fill-opacity: 1; stroke: rgb(0, 0, 0); stroke-opacity: 1; stroke-width: 0; paint-order: fill;" transform="matrix(0.0004948615678586066, -0.011270112358033657, 0.011270112358033657, 0.0004948615678586066, 6.6524658203125, 365.7445373535156)"/><g transform="matrix(0.7415704131126403, 0.006429015193134545, -0.006429015193134545, 0.7415704131126403, -250.99811012018375, -161.36714698822246)"><desc>Created with Fabric.js 5.2.4</desc><g transform="matrix(1 0 0 1 540 540)" id="64c2bd79-a472-4bd8-af6e-c5fc0c14cce8">
<path d="M -540 -540 H 540 V 540 H -540 V -540 Z" style="stroke: none; stroke-width: 1; stroke-dasharray: none; stroke-linecap: butt; stroke-dashoffset: 0; stroke-linejoin: miter; stroke-miterlimit: 4; fill: rgb(255,255,255); fill-rule: nonzero; opacity: 1; visibility: hidden;" vector-effect="non-scaling-stroke"/>
</g><g transform="matrix(1 0 0 1 540 540)" id="21a1ac2f-e5b6-45f8-90fa-20f6aea8db60">
</g><g transform="matrix(1.1 0 0 1.1 558.16 518.41)" id="7cef5313-57c1-4933-9c79-3601366f054b">
<path style="stroke: rgb(0,0,0); stroke-width: 0; stroke-dasharray: none; stroke-linecap: butt; stroke-dashoffset: 0; stroke-linejoin: miter; stroke-miterlimit: 4; fill: rgb(216,117,137); fill-rule: nonzero; opacity: 1;" vector-effect="non-scaling-stroke" transform=" translate(-200, -200)" d="M 342.25 0 L 109.609375 0 C 104.472656 0 100.304688 4.167969 100.304688 9.304688 L 100.304688 148.425781 L 113.105469 148.425781 C 109.257812 143.511719 107.164062 137.492188 107.164062 131.15625 C 107.160156 123.648438 110.085938 116.59375 115.398438 111.289062 C 116.488281 110.195312 117.683594 109.222656 118.921875 108.332031 L 118.921875 18.613281 L 332.945312 18.613281 L 332.945312 25.296875 L 235.238281 96.238281 L 235.238281 400 L 333.476562 328.671875 C 334.726562 332.339844 338.160156 334.996094 342.25 334.996094 C 347.386719 334.996094 351.554688 330.828125 351.554688 325.691406 L 351.554688 9.304688 C 351.554688 4.164062 347.386719 0 342.25 0 Z M 272.148438 255.191406 C 267.757812 255.191406 264.101562 249.777344 263.160156 242.519531 L 252.683594 242.519531 L 252.683594 234.378906 L 263.308594 234.378906 C 264.421875 227.566406 267.933594 222.554688 272.140625 222.554688 C 277.242188 222.554688 281.371094 229.855469 281.371094 238.875 C 281.382812 247.886719 277.246094 255.191406 272.148438 255.191406 Z M 115.402344 241.738281 C 116.496094 242.824219 117.683594 243.796875 118.914062 244.679688 L 118.914062 325.691406 C 118.914062 330.828125 114.746094 334.996094 109.609375 334.996094 C 104.472656 334.996094 100.304688 330.828125 100.304688 325.691406 L 100.304688 204.585938 L 113.105469 204.585938 C 104.503906 215.597656 105.265625 231.589844 115.402344 241.738281 Z M 181.960938 167.875 C 185.664062 171.578125 185.664062 177.566406 181.960938 181.269531 L 136.609375 226.625 C 134.761719 228.464844 132.339844 229.398438 129.914062 229.402344 C 127.492188 229.398438 125.066406 228.472656 123.21875 226.625 C 119.519531 222.921875 119.523438 216.929688 123.21875 213.234375 L 152.410156 184.042969 L 57.910156 184.042969 C 52.683594 184.042969 48.445312 179.804688 48.445312 174.574219 C 48.445312 169.34375 52.675781 165.105469 57.917969 165.105469 L 152.40625 165.105469 L 123.21875 135.914062 C 119.523438 132.222656 119.519531 126.222656 123.21875 122.53125 C 126.917969 118.832031 132.914062 118.832031 136.613281 122.53125 Z M 181.960938 167.875" stroke-linecap="round"/>
</g></g></svg>