<?xml version="1.0" standalone="no"?><!DOCTYPE svg PUBLIC "-//W3C//DTD SVG 20010904//EN" "http://www.w3.org/TR/2001/REC-SVG-20010904/DTD/svg10.dtd"><svg xmlns="http://www.w3.org/2000/svg" version="1.0" width="752.000000pt" height="752.000000pt" viewBox="0 0 752.000000 752.000000" preserveAspectRatio="xMidYMid meet">
<metadata>
Created by potrace 1.16, written by Peter Selinger 2001-2019
</metadata>
<g transform="translate(0.000000,752.000000) scale(0.100000,-0.100000)" fill="#053a9d" stroke="none">
<path d="M3360 5929 c-399 -27 -1042 -131 -1225 -200 -82 -31 -141 -75 -164 -123 -20 -40 -21 -59 -21 -398 l0 -356 69 -21 c176 -54 307 -201 342 -385 5 -27 9 -360 9 -755 l0 -706 80 -29 79 -28 78 30 c175 68 311 77 555 37 249 -40 351 -48 593 -48 242 0 344 8 590 47 222 36 246 38 342 26 99 -12 174 -32 251 -66 l52 -23 78 27 77 27 5 750 c5 711 6 752 24 795 67 157 198 272 354 310 l43 11 -3 362 c-3 404 -2 396 -75 456 -55 45 -139 75 -339 119 -317 71 -650 118 -992 142 -176 11 -617 11 -802 -1z"/>
<path d="M1741 4458 c-49 -24 -96 -83 -111 -139 -7 -25 -10 -361 -8 -986 3 -874 4 -951 20 -992 25 -62 70 -119 123 -157 76 -53 439 -193 648 -249 60 -16 72 -23 96 -59 74 -107 191 -183 322 -210 442 -91 1041 -111 1519 -50 190 24 362 55 417 76 84 31 171 95 220 162 38 51 52 63 92 74 197 55 504 168 629 231 72 36 133 103 164 180 l23 56 0 965 0 965 -28 48 c-38 64 -90 97 -165 104 -100 9 -173 -26 -220 -107 l-27 -45 -5 -779 -5 -778 -119 -49 c-120 -49 -415 -149 -441 -149 -8 0 -29 9 -47 20 -98 61 -237 74 -419 41 -221 -40 -395 -55 -664 -55 -271 -1 -379 8 -643 50 -224 35 -289 31 -414 -30 l-66 -33 -174 57 c-95 32 -220 78 -278 102 l-105 44 -5 780 -5 779 -28 47 c-15 26 -39 55 -55 66 -67 47 -169 56 -241 20z"/>
</g>
</svg>