<svg xmlns="http://www.w3.org/2000/svg" version="1.0" width="225.000000pt" height="225.000000pt" viewBox="0 0 225.000000 225.000000" preserveAspectRatio="xMidYMid meet">
<metadata fill="#c5c3be">
Created by potrace 1.16, written by Peter Selinger 2001-2019
</metadata>
<g transform="translate(0.000000,225.000000) scale(0.100000,-0.100000)" fill="#c5c3be" stroke="none">
<path d="M1025 2159 c-131 -10 -245 -42 -370 -104 -174 -85 -300 -203 -401 -375 -158 -267 -190 -620 -84 -913 96 -261 286 -472 532 -587 160 -75 320 -102 515 -88 440 32 821 383 907 838 22 115 21 311 -3 425 -48 231 -176 448 -349 590 -83 69 -260 157 -369 185 -74 18 -115 24 -248 34 -22 1 -80 -1 -130 -5z m215 -209 c203 -31 344 -103 472 -239 106 -113 194 -273 186 -339 l-3 -27 -257 3 -257 3 32 -62 c30 -58 32 -69 32 -163 0 -86 -4 -108 -24 -146 -32 -61 -96 -126 -156 -158 -43 -23 -62 -27 -140 -27 -78 0 -97 4 -140 27 -60 32 -124 97 -156 158 -20 38 -24 60 -24 146 0 94 2 105 32 163 l32 62 -257 -3 -257 -3 -3 27 c-4 32 33 127 79 205 48 80 169 205 244 253 166 104 376 149 565 120z m-655 -925 c93 -20 164 -56 213 -109 80 -87 113 -188 141 -437 10 -90 18 -165 16 -167 -1 -1 -38 9 -81 22 -201 64 -375 219 -475 422 -59 120 -94 259 -69 274 23 15 177 11 255 -5z m1335 5 c25 -15 -10 -154 -69 -274 -80 -163 -197 -285 -351 -369 -61 -33 -197 -83 -205 -76 -8 9 37 340 55 406 50 181 140 270 311 307 74 17 237 20 259 6z" fill="#c5c3be"/>
<path d="M1026 1370 c-62 -24 -100 -60 -132 -127 -23 -45 -26 -63 -22 -125 6 -110 51 -183 142 -231 57 -30 165 -30 222 0 50 27 98 75 121 122 27 55 30 168 5 223 -58 132 -200 191 -336 138z" fill="#c5c3be"/>
</g>
</svg>